
[code]
Ecstasy (2011) HDRip x264-BBnRG

Complete name                    : Ecstasy (2011) HDRip x264-BBnRG
Format                           : MPEG-4
Format profile                   : Base Media / Version 2
Codec ID                         : mp42
File size                        : 987 MiB
Duration                         : 1h 35mn
Overall bit rate                 : 1 438 Kbps

Video
ID                               : 1
Format                           : AVC
Format/Info                      : Advanced Video Codec
Format profile                   : Main@L3.0
Format settings, CABAC           : Yes
Format settings, ReFrames        : 4 frames
Codec ID                         : avc1
Codec ID/Info                    : Advanced Video Coding
Duration                         : 1h 35mn
Bit rate mode                    : Variable
Bit rate                         : 1 293 Kbps
Width                            : 720 pixels
Height                           : 304 pixels
Display aspect ratio             : 2.35:1
Frame rate mode                  : Variable
Frame rate                       : 23.976 fps
Minimum frame rate               : 23.974 fps
Maximum frame rate               : 23.981 fps
Color space                      : YUV
Chroma subsampling               : 4:2:0
Bit depth                        : 8 bits
Scan type                        : Progressive
Bits/(Pixel*Frame)               : 0.246
Stream size                      : 874 MiB (89%)
Writing library                  : x264 core 112

Audio
ID                               : 2
Format                           : AAC
Format/Info                      : Advanced Audio Codec
Format profile                   : LC
Codec ID                         : 40
Duration                         : 1h 35mn
Bit rate mode                    : Variable
Bit rate                         : 160 Kbps
Maximum bit rate                 : 281 Kbps
Channel(s)                       : 2 channels
Channel positions                : Front: L R
Sampling rate                    : 44.1 KHz
Compression mode                 : Lossy
Stream size                      : 110 MiB (11%)
     
Encoder: SMiLE

Plot:
A single church-going mother desperately tries to save her two daughters from walking down the same 
dark path she was once on; and a young woman fights against addiction to a mysterious party drug.

IMDB: http://www.imdb.com/title/tt1552221/

Source(s):
Video: Ecstasy.2011.DivX-1080p.ETC1337 (Big Thanks Mate!)
Audio: Ecstasy.2011.DivX-1080p.ETC1337 (Big Thanks Mate!)

Release Notes:
Here we go with another fine release. Firstly a big thanks goes out to our matey ETC for providing
the source files for this rip. I took the 3.6gb DivX file, i made a slight crop to remove the black
bar along the top, changed the dimensions and then made a conversion from DivX to a 1gb MP4 file.
This took me quite a long time but the quality is incredible. Also, we didn't know what to name this,
there is no confirmed DVD or Blu-ray date out, infact this movie has not been released yet, 
but this looks like a Blu-ray, therefore we named it as a HDRip. Anyway, Enjoy!

BBnRG: The Gods Of Great Quality Rips At A Small File Size.

SMiLE: Presenting Another Great Quality Release At A Small File Size.
[/CODE]
Sreens: